<?xml version="1.0" encoding="utf-8"?>
<!-- Generator: Adobe Illustrator 18.0.0, SVG Export Plug-In . SVG Version: 6.00 Build 0)  -->
<!DOCTYPE svg PUBLIC "-//W3C//DTD SVG 1.1//EN" "http://www.w3.org/Graphics/SVG/1.1/DTD/svg11.dtd">
<svg version="1.1" id="图形" xmlns="http://www.w3.org/2000/svg" xmlns:xlink="http://www.w3.org/1999/xlink" x="0px" y="0px"
	 viewBox="15.167 -16.333 1000.636 1000.678" enable-background="new 15.167 -16.333 1000.636 1000.678" xml:space="preserve">
<g id="_x31__1_">
	<path d="M515.38,23.667c31.435,0,61.91,6.149,90.578,18.276c27.711,11.722,52.608,28.512,73.998,49.902
		c21.39,21.391,38.179,46.288,49.901,73.999c12.127,28.669,18.276,59.145,18.276,90.58c0,31.434-6.149,61.908-18.276,90.576
		c-11.722,27.71-28.511,52.606-49.901,73.996c-21.39,21.39-46.286,38.178-73.998,49.9c-28.669,12.127-59.144,18.276-90.579,18.276
		c-31.434,0-61.904-6.148-90.565-18.274c-27.702-11.72-52.59-28.508-73.971-49.896c-21.381-21.388-38.162-46.283-49.879-73.994
		c-12.121-28.668-18.267-59.145-18.267-90.582c0-31.439,6.146-61.917,18.268-90.587c11.717-27.712,28.498-52.609,49.879-73.998
		c21.381-21.389,46.268-38.177,73.971-49.898C453.476,29.816,483.946,23.667,515.38,23.667 M515.167,614.463
		c58.057,0,114.103,7.167,166.58,21.303c50.293,13.547,95.125,32.869,133.251,57.428c37.007,23.839,65.775,51.38,85.504,81.859
		c19.442,30.036,29.3,61.972,29.3,94.922v40.896c0,18.084-14.679,32.796-32.723,32.796h-763.75
		c-18.084,0-32.796-14.712-32.796-32.796v-40.896c0-34.037,9.88-66.646,29.367-96.923c19.62-30.484,48.318-57.889,85.298-81.453
		c37.932-24.171,82.742-43.149,133.186-56.409C400.704,621.437,456.818,614.463,515.167,614.463 M515.38-16.333
		c-150.624,0-272.682,122.133-272.682,272.758c0,150.62,122.058,272.747,272.682,272.747c150.623,0,272.753-122.127,272.753-272.747
		C788.133,105.8,666.003-16.333,515.38-16.333L515.38-16.333z M515.167,574.463c-251.061,0-454.634,123.903-454.634,295.512v40.896
		c0,40.191,32.605,72.796,72.796,72.796h763.75c40.188,0,72.723-32.605,72.723-72.796v-40.896
		C969.801,702.903,766.3,574.463,515.167,574.463L515.167,574.463z"/>
</g>
</svg>
