<?xml version="1.0" encoding="utf-8"?>
<!-- Generator: Adobe Illustrator 18.0.0, SVG Export Plug-In . SVG Version: 6.00 Build 0)  -->
<!DOCTYPE svg PUBLIC "-//W3C//DTD SVG 1.1//EN" "http://www.w3.org/Graphics/SVG/1.1/DTD/svg11.dtd">
<svg version="1.1" id="图形" xmlns="http://www.w3.org/2000/svg" xmlns:xlink="http://www.w3.org/1999/xlink" x="0px" y="0px"
	 viewBox="0 0 100 100" enable-background="new 0 0 100 100" xml:space="preserve">
<path d="M98.53,30.934L53.471,75.998c-1.915,1.915-5.022,1.915-6.932,0c-1.915-1.915-1.915-5.022,0-6.932l45.059-45.064
	c1.915-1.915,5.017-1.915,6.932,0C100.445,25.918,100.445,29.024,98.53,30.934L98.53,30.934z M53.461,75.998
	c-1.915,1.915-5.016,1.915-6.932,0L1.47,30.934c-1.915-1.91-1.915-5.017,0-6.932c1.915-1.915,5.017-1.915,6.932,0l45.059,45.064
	C55.376,70.976,55.376,74.082,53.461,75.998L53.461,75.998z"/>
</svg>
