<?xml version="1.0" encoding="utf-8"?>
<!-- Generator: Adobe Illustrator 18.0.0, SVG Export Plug-In . SVG Version: 6.00 Build 0)  -->
<!DOCTYPE svg PUBLIC "-//W3C//DTD SVG 1.1//EN" "http://www.w3.org/Graphics/SVG/1.1/DTD/svg11.dtd">
<svg version="1.1" id="图形" xmlns="http://www.w3.org/2000/svg" xmlns:xlink="http://www.w3.org/1999/xlink" x="0px" y="0px"
	 viewBox="0 0 100 100" enable-background="new 0 0 100 100" xml:space="preserve">
<path d="M99.066,99.045c-1.2,1.2-3.142,1.2-4.342,0L75.587,79.917c-8.016,7.015-18.484,11.297-29.975,11.297
	c-25.17,0-45.577-20.407-45.577-45.577c0-25.175,20.407-45.582,45.577-45.582c25.175,0,45.582,20.407,45.582,45.582
	c0,11.468-4.268,21.922-11.265,29.934l19.137,19.133C100.266,95.899,100.266,97.845,99.066,99.045L99.066,99.045z M85.313,45.637
	c0-21.927-17.775-39.702-39.702-39.702c-21.922,0-39.697,17.775-39.697,39.702c0,21.922,17.775,39.697,39.697,39.697
	C67.538,85.334,85.313,67.559,85.313,45.637L85.313,45.637z"/>
</svg>
