<?xml version="1.0" encoding="utf-8"?>
<!-- Generator: Adobe Illustrator 18.0.0, SVG Export Plug-In . SVG Version: 6.00 Build 0)  -->
<!DOCTYPE svg PUBLIC "-//W3C//DTD SVG 1.1//EN" "http://www.w3.org/Graphics/SVG/1.1/DTD/svg11.dtd">
<svg version="1.1" id="图形" xmlns="http://www.w3.org/2000/svg" xmlns:xlink="http://www.w3.org/1999/xlink" x="0px" y="0px"
	 viewBox="0 0 100 100" enable-background="new 0 0 100 100" xml:space="preserve">
<path d="M98.59,44.346c-7.057,8.596-19.536,22.787-19.536,22.787c0,0,2.041,15.581,3.185,26.224
	c0.497,5.421-3.411,7.765-7.837,5.652c-8.422-4.231-21.238-10.786-24.121-12.263c-2.934,1.462-15.879,7.909-24.388,12.13
	c-4.477,2.108-8.432-0.236-7.929-5.647c1.159-10.627,3.221-26.193,3.221-26.193c0,0-12.622-14.161-19.761-22.746
	c-2.523-3.118-0.903-7.55,4.072-8.365c10.145-1.918,25.87-4.975,25.87-4.975c0,0,8.601-15.853,14.043-25.562
	c2.995-5.908,5.067-5.226,5.421-5.052c0.923,0.318,2.38,1.467,4.282,5.057c5.38,9.724,13.884,25.598,13.884,25.598
	c0,0,15.54,3.057,25.567,4.98C99.478,36.791,101.083,41.228,98.59,44.346L98.59,44.346z"/>
</svg>
