<?xml version="1.0" encoding="utf-8"?>
<!-- Generator: Adobe Illustrator 18.0.0, SVG Export Plug-In . SVG Version: 6.00 Build 0)  -->
<!DOCTYPE svg PUBLIC "-//W3C//DTD SVG 1.1//EN" "http://www.w3.org/Graphics/SVG/1.1/DTD/svg11.dtd">
<svg version="1.1" id="图形" xmlns="http://www.w3.org/2000/svg" xmlns:xlink="http://www.w3.org/1999/xlink" x="0px" y="0px"
	 viewBox="0 0 100 100" enable-background="new 0 0 100 100" xml:space="preserve">
<path d="M50,99.966C22.404,99.966,0.034,77.596,0.034,50S22.404,0.034,50,0.034S99.966,22.404,99.966,50S77.596,99.966,50,99.966
	L50,99.966z M50,1.699C23.325,1.699,1.699,23.325,1.699,50c0,26.675,21.625,48.301,48.301,48.301S98.301,76.675,98.301,50
	S76.675,1.699,50,1.699L50,1.699z M64.99,45.836c-2.299,0-4.164-1.864-4.164-4.164c0-2.299,1.864-4.164,4.164-4.164
	c2.299,0,4.164,1.864,4.164,4.164C69.154,43.972,67.289,45.836,64.99,45.836L64.99,45.836z M64.99,68.32
	c0,0.919-0.746,1.666-1.666,1.666c0,0-6.651-1.666-13.307-1.666c-6.668,0-13.342,1.666-13.342,1.666
	c-0.919,0-1.666-0.746-1.666-1.666c0-0.919,0.746-1.666,1.666-1.666c0,0,6.674-1.666,13.342-1.666
	c6.656,0,13.307,1.666,13.307,1.666C64.244,66.654,64.99,67.4,64.99,68.32L64.99,68.32z M35.01,45.836
	c-2.299,0-4.164-1.864-4.164-4.164c0-2.299,1.865-4.164,4.164-4.164c2.299,0,4.164,1.864,4.164,4.164
	C39.174,43.972,37.31,45.836,35.01,45.836L35.01,45.836z"/>
</svg>
