<?xml version="1.0" encoding="utf-8"?>
<!-- Generator: Adobe Illustrator 18.0.0, SVG Export Plug-In . SVG Version: 6.00 Build 0)  -->
<!DOCTYPE svg PUBLIC "-//W3C//DTD SVG 1.1//EN" "http://www.w3.org/Graphics/SVG/1.1/DTD/svg11.dtd">
<svg version="1.1" id="图形" xmlns="http://www.w3.org/2000/svg" xmlns:xlink="http://www.w3.org/1999/xlink" x="0px" y="0px"
	 viewBox="15.167 -16.333 1000.636 1000.678" enable-background="new 15.167 -16.333 1000.636 1000.678" xml:space="preserve">
<path fill-rule="evenodd" clip-rule="evenodd" d="M980.66,440.5c0,30.582-24.82,55.403-55.403,55.403l-33.242-0.222v399.342
	c0,48.976-39.668,88.644-88.644,88.644H603.922v-221.61c0-48.976-39.668-88.866-88.644-88.866s-88.644,39.89-88.644,88.866v221.61
	H227.184c-48.976,0-88.866-39.668-88.866-88.644V495.681l-33.242,0.222c-30.804,0.886-55.403-24.82-55.403-55.403
	c0-15.956,7.092-30.361,17.95-40.555c-1.551-0.886,372.084-369.646,372.084-369.646s38.782-44.322,73.353-46.317
	c28.809-1.773,43.657,2.659,86.65,46.538c0,0,364.549,368.538,363.219,369.424C973.79,410.139,980.66,424.544,980.66,440.5z"/>
</svg>
