<?xml version="1.0" encoding="utf-8"?>
<!-- Generator: Adobe Illustrator 18.0.0, SVG Export Plug-In . SVG Version: 6.00 Build 0)  -->
<!DOCTYPE svg PUBLIC "-//W3C//DTD SVG 1.1//EN" "http://www.w3.org/Graphics/SVG/1.1/DTD/svg11.dtd">
<svg version="1.1" id="图形" xmlns="http://www.w3.org/2000/svg" xmlns:xlink="http://www.w3.org/1999/xlink" x="0px" y="0px"
	 viewBox="15.167 -16.333 1000.636 1000.678" enable-background="new 15.167 -16.333 1000.636 1000.678" xml:space="preserve">
<path fill-rule="evenodd" clip-rule="evenodd" d="M1006.51,974.997c-11.286,11.56-29.639,11.56-40.925,0L515.167,515.008
	L64.784,974.997c-11.321,11.56-29.639,11.56-40.96,0c-11.32-11.56-11.32-30.257,0-41.817l450.417-459.989L44.304,34.129
	c-11.321-11.526-11.321-30.257,0-41.817c11.286-11.526,29.639-11.526,40.925,0l429.938,439.063L945.104-7.688
	c11.321-11.526,29.639-11.526,40.959,0c11.286,11.56,11.286,30.291,0,41.817L556.126,473.191l450.383,459.989
	C1017.83,944.74,1017.83,963.436,1006.51,974.997L1006.51,974.997z"/>
</svg>
