<?xml version="1.0" encoding="utf-8"?>
<!-- Generator: Adobe Illustrator 18.0.0, SVG Export Plug-In . SVG Version: 6.00 Build 0)  -->
<!DOCTYPE svg PUBLIC "-//W3C//DTD SVG 1.1//EN" "http://www.w3.org/Graphics/SVG/1.1/DTD/svg11.dtd">
<svg version="1.1" id="图形" xmlns="http://www.w3.org/2000/svg" xmlns:xlink="http://www.w3.org/1999/xlink" x="0px" y="0px"
	 viewBox="0 0 100 100" enable-background="new 0 0 100 100" xml:space="preserve">
<path d="M50,99.966C22.404,99.966,0.034,77.596,0.034,50S22.404,0.034,50,0.034S99.966,22.404,99.966,50S77.596,99.966,50,99.966
	L50,99.966z M50,1.699C23.324,1.699,1.699,23.324,1.699,50S23.324,98.301,50,98.301S98.301,76.677,98.301,50S76.676,1.699,50,1.699
	L50,1.699z M46.341,62.936c-0.253,0.255-0.59,0.371-0.921,0.363c-0.331,0.009-0.668-0.108-0.923-0.363L35.361,53.8
	c-0.491-0.491-0.491-1.287,0-1.78c0.491-0.491,1.289-0.491,1.78,0l8.248,8.25l21.635-23.238c0.491-0.493,1.287-0.493,1.778,0
	c0.493,0.491,0.493,1.287,0,1.778L46.341,62.936L46.341,62.936z"/>
</svg>
