<?xml version="1.0" encoding="utf-8"?>
<!-- Generator: Adobe Illustrator 18.0.0, SVG Export Plug-In . SVG Version: 6.00 Build 0)  -->
<!DOCTYPE svg PUBLIC "-//W3C//DTD SVG 1.1//EN" "http://www.w3.org/Graphics/SVG/1.1/DTD/svg11.dtd">
<svg version="1.1" id="图形" xmlns="http://www.w3.org/2000/svg" xmlns:xlink="http://www.w3.org/1999/xlink" x="0px" y="0px"
	 viewBox="0 0 100 100" enable-background="new 0 0 100 100" xml:space="preserve">
<path d="M76.29,4.496L27.754,53.032c-0.557,0.562-1.463,0.562-2.025,0l-2.02-2.02c-0.557-0.562-0.557-1.467,0-2.025L72.246,0.452
	c0.557-0.557,1.463-0.557,2.024,0l2.02,2.024C76.847,3.033,76.847,3.939,76.29,4.496L76.29,4.496z M76.29,97.524l-2.02,2.025
	c-0.562,0.557-1.467,0.557-2.024,0L23.71,51.012c-0.557-0.562-0.557-1.467,0-2.025l2.02-2.02c0.562-0.562,1.467-0.562,2.025,0
	L76.29,95.504C76.847,96.061,76.847,96.967,76.29,97.524L76.29,97.524z"/>
</svg>
