<?xml version="1.0" encoding="utf-8"?>
<!-- Generator: Adobe Illustrator 18.0.0, SVG Export Plug-In . SVG Version: 6.00 Build 0)  -->
<!DOCTYPE svg PUBLIC "-//W3C//DTD SVG 1.1//EN" "http://www.w3.org/Graphics/SVG/1.1/DTD/svg11.dtd">
<svg version="1.1" id="图层_1" xmlns="http://www.w3.org/2000/svg" xmlns:xlink="http://www.w3.org/1999/xlink" x="0px" y="0px"
	 viewBox="0 0 1000 1000" enable-background="new 0 0 1000 1000" xml:space="preserve">
<path fill-rule="evenodd" clip-rule="evenodd" d="M749.99,1000H250.009c-50.149,0-90.902-40.79-90.902-90.903V90.902
	C159.107,40.789,199.86,0,250.009,0H749.99c50.114,0,90.903,40.789,90.903,90.902v818.195C840.893,959.21,800.104,1000,749.99,1000
	L749.99,1000z M795.424,90.902c0-25.057-20.377-45.434-45.434-45.434H250.009c-25.056,0-45.469,20.377-45.469,45.434v818.195
	c0,25.021,20.413,45.433,45.469,45.433H749.99c25.057,0,45.434-20.412,45.434-45.433V90.902L795.424,90.902z M704.521,727.256
	H295.443c-25.058,0-45.434-20.377-45.434-45.433V136.371c0-25.056,20.376-45.469,45.434-45.469h409.079
	c25.057,0,45.469,20.413,45.469,45.469v545.451C749.99,706.879,729.578,727.256,704.521,727.256L704.521,727.256z M704.521,136.371
	H295.443v545.451h409.079V136.371L704.521,136.371z M500,772.725c37.585,0,68.185,30.565,68.185,68.186
	c0,37.585-30.601,68.186-68.185,68.186c-37.621,0-68.186-30.601-68.186-68.186C431.814,803.29,462.379,772.725,500,772.725
	L500,772.725z M477.247,863.627h45.469v-45.469h-45.469V863.627L477.247,863.627z"/>
</svg>
