<?xml version="1.0" encoding="utf-8"?>
<!-- Generator: Adobe Illustrator 18.0.0, SVG Export Plug-In . SVG Version: 6.00 Build 0)  -->
<!DOCTYPE svg PUBLIC "-//W3C//DTD SVG 1.1//EN" "http://www.w3.org/Graphics/SVG/1.1/DTD/svg11.dtd">
<svg version="1.1" id="图形" xmlns="http://www.w3.org/2000/svg" xmlns:xlink="http://www.w3.org/1999/xlink" x="0px" y="0px"
	 viewBox="0 0 100 100" enable-background="new 0 0 100 100" xml:space="preserve">
<path d="M50,99.966C22.404,99.966,0.034,77.596,0.034,50S22.404,0.034,50,0.034S99.966,22.404,99.966,50S77.596,99.966,50,99.966
	L50,99.966z M50,1.699C23.325,1.699,1.699,23.325,1.699,50c0,26.675,21.625,48.301,48.301,48.301S98.301,76.675,98.301,50
	S76.675,1.699,50,1.699L50,1.699z M50,66.655c-1.38,0-2.498-1.118-2.498-2.498c0-1.38,1.118-2.498,2.498-2.498
	c1.38,0,2.498,1.118,2.498,2.498S51.38,66.655,50,66.655L50,66.655z M50,57.494c-0.919,0-1.666-0.746-1.666-1.666l-0.833-20.819
	c0-0.921,1.118-1.666,2.498-1.666c1.38,0,2.498,0.745,2.498,1.666l-0.833,20.819C51.665,56.748,50.919,57.494,50,57.494L50,57.494z"
	/>
</svg>
