<?xml version="1.0" encoding="utf-8"?>
<!DOCTYPE svg PUBLIC "-//W3C//DTD SVG 1.1//EN" "http://www.w3.org/Graphics/SVG/1.1/DTD/svg11.dtd">
<svg style="width:308px;height:308px;" version="1.1" id="图形" xmlns="http://www.w3.org/2000/svg" xmlns:xlink="http://www.w3.org/1999/xlink" x="0px" y="0px" width="1025px" height="1024px" viewBox="0 0 1025 1024" enable-background="new 0 0 1025 1024" xml:space="preserve">
  <path class="svgpath" data-index="path_0" fill="#272636" d="M1024.035 153.411c0-32.067-31.908-64.127-63.84-64.127L63.917 89.284C32.14 89.284 0 113.453 0 153.395l0.071 704.17c0 31.75 31.847 63.719 68.398 63.719l891.334 0c31.941 0 64.232-31.771 64.232-63.905L1024.035 153.411zM960.035 699.298 657.119 445.173l302.916-212.125L960.035 699.298 960.035 699.298zM95.958 153.284l824.036 0c24.061 0 31.965 8.047 31.965 17.269L507.4 475.263l-443.363-304.1C64.037 161.687 71.274 153.284 95.958 153.284zM64.035 233.048l302.917 212.125L64.035 699.423 64.035 233.048zM927.773 857.284 101.392 857.284c-28.807 0-37.356-8.328-37.356-31.735l0-42.626 354.892-299.75 89.607 63.562 92.542-63.562 358.957 299.688 0 42.381C960.035 849.067 950.607 857.284 927.773 857.284z" />

</svg>
