<?xml version="1.0" encoding="utf-8"?>
<!-- Generator: Adobe Illustrator 18.0.0, SVG Export Plug-In . SVG Version: 6.00 Build 0)  -->
<!DOCTYPE svg PUBLIC "-//W3C//DTD SVG 1.1//EN" "http://www.w3.org/Graphics/SVG/1.1/DTD/svg11.dtd">
<svg version="1.1" id="图形" xmlns="http://www.w3.org/2000/svg" xmlns:xlink="http://www.w3.org/1999/xlink" x="0px" y="0px"
	 viewBox="15.167 -16.333 1000.636 1000.678" enable-background="new 15.167 -16.333 1000.636 1000.678" xml:space="preserve">
<g id="_x31_">
	<path d="M515.38,529.172c-150.624,0-272.682-122.127-272.682-272.747c0-150.625,122.059-272.758,272.682-272.758
		c150.623,0,272.753,122.133,272.753,272.758C788.133,407.045,666.003,529.172,515.38,529.172L515.38,529.172z M897.078,983.667
		H133.329c-40.192,0-72.796-32.605-72.796-72.796v-40.896c0-171.609,203.573-295.512,454.634-295.512
		c251.133,0,454.634,128.44,454.634,295.512v40.896C969.801,951.062,937.267,983.667,897.078,983.667L897.078,983.667z"/>
</g>
</svg>
