<?xml version="1.0" encoding="utf-8"?>
<!-- Generator: Adobe Illustrator 18.0.0, SVG Export Plug-In . SVG Version: 6.00 Build 0)  -->
<!DOCTYPE svg PUBLIC "-//W3C//DTD SVG 1.1//EN" "http://www.w3.org/Graphics/SVG/1.1/DTD/svg11.dtd">
<svg version="1.1" id="图形" xmlns="http://www.w3.org/2000/svg" xmlns:xlink="http://www.w3.org/1999/xlink" x="0px" y="0px"
	 viewBox="15.167 -16.333 1000.636 1000.678" enable-background="new 15.167 -16.333 1000.636 1000.678" xml:space="preserve">
<path d="M522.144,25.333c5.592,0,7.867,0.578,12.17,3.094c8.002,4.677,19.326,14.608,35.635,31.254l0.069,0.071l0.07,0.071
	c108.583,109.771,261.604,264.79,328.312,333.065l36.012,37.435c1.711,1.606,4.58,5.064,4.58,10.177
	c0,7.543-6.111,13.685-13.643,13.736l-33.057-0.22l-41.944-0.28v41.945v399.342c0,25.903-21.074,46.978-46.977,46.978H645.589
	V762.056c0-71.976-58.457-130.532-130.311-130.532s-130.311,58.557-130.311,130.532V942H227.184
	c-26.026,0-47.199-21.074-47.199-46.978V495.681v-41.945l-41.944,0.28l-33.242,0.222l-0.458,0.003l-0.458,0.013
	c-0.117,0.003-0.235,0.005-0.352,0.005c-6.608,0-12.19-6.3-12.19-13.758c0-4.932,3.008-8.493,4.802-10.177l39.079-39.745
	c69.587-69.562,223.918-222.22,333.755-330.624l1.085-1.071l1.004-1.147c0.073-0.084,7.81-8.764,18.548-17.443
	c17.414-14.076,25.766-14.709,25.848-14.713l0.08-0.005l0.08-0.005c2.589-0.159,4.721-0.237,6.52-0.237H522.144 M522.14-16.333
	c-2.893,0-5.902,0.12-9.078,0.315c-34.571,1.995-73.353,46.317-73.353,46.317S66.074,399.059,67.625,399.945
	c-10.859,10.194-17.95,24.599-17.95,40.555c0,30.071,23.777,55.425,53.857,55.425c0.512,0,1.031-0.007,1.546-0.022l33.242-0.222
	v399.342c0,48.976,39.89,88.644,88.866,88.644h199.449v-221.61c0-48.976,39.668-88.866,88.644-88.866
	c48.976,0,88.644,39.89,88.644,88.866v221.61h199.449c48.976,0,88.644-39.668,88.644-88.644V495.681l33.242,0.222
	c30.582,0,55.403-24.82,55.403-55.402c0-15.956-6.87-30.361-17.729-40.555c1.33-0.886-363.22-369.424-363.22-369.424
	C561.458-8.521,545.49-16.334,522.14-16.333L522.14-16.333z"/>
</svg>
