<?xml version="1.0" encoding="utf-8"?>
<!-- Generator: Adobe Illustrator 18.0.0, SVG Export Plug-In . SVG Version: 6.00 Build 0)  -->
<!DOCTYPE svg PUBLIC "-//W3C//DTD SVG 1.1//EN" "http://www.w3.org/Graphics/SVG/1.1/DTD/svg11.dtd">
<svg version="1.1" id="图形" xmlns="http://www.w3.org/2000/svg" xmlns:xlink="http://www.w3.org/1999/xlink" x="0px" y="0px"
	 viewBox="15.167 -16.333 1000.636 1000.678" enable-background="new 15.167 -16.333 1000.636 1000.678" xml:space="preserve">
<path id="触发_1_" fill="#040000" d="M265.057,29.185l0.02,62c36.308,0.004,72.381,11.968,104.321,34.597
	c17.548,12.432,33.787,28.028,48.268,46.352c21.376,23.048,97.969,155.048,97.969,155.048s69.741-119.667,96.011-151.942
	c14.122-17.606,30.088-32.633,47.456-44.662c32.041-22.194,68.443-33.926,105.269-33.926c48.357,0,93.478,20.105,127.052,56.611
	c39.811,43.288,61.159,106.521,61.745,182.884c-0.06,49.192-22.592,107.465-66.971,173.205
	c-38.625,57.216-93.094,118.854-161.895,183.202c-81.144,75.893-163.313,137.62-208.203,169.76
	c-44.703-32.735-126.663-95.553-208.131-172.422c-69.386-65.47-124.338-127.738-163.329-185.074
	c-22.093-32.488-39.025-63.424-50.324-91.948c-11.344-28.636-17.113-55.087-17.148-78.627
	c0.577-76.97,21.913-141.022,61.707-185.252c33.54-37.278,78.353-57.808,126.183-57.808V29.185 M265.084,29.185
	C137.484,29.17,16.55,136.464,15.167,334.027c0,263.735,500.502,604.122,500.502,604.122s499.498-330.357,499.498-602.198
	C1013.766,138.598,891.874,34.653,764.37,34.653c-96.232,0-195.655,59.188-248.922,182.103
	C459.864,89.338,360.601,29.197,265.084,29.185L265.084,29.185z"/>
</svg>
